<svg xmlns="http://www.w3.org/2000/svg" xmlns:xlink="http://www.w3.org/1999/xlink" width="500" zoomAndPan="magnify" viewBox="0 0 375 374.999991" height="500" preserveAspectRatio="xMidYMid meet" version="1.0"><defs><clipPath id="5e3669c86f"><path d="M 76 134.214844 L 155 134.214844 L 155 241 L 76 241 Z M 76 134.214844 " clip-rule="nonzero"/></clipPath></defs><path fill="#ffcc33" d="M 58.535156 189.210938 C 58.871094 186.492188 59.257812 183.78125 59.507812 181.058594 C 59.558594 180.476562 59.125 179.839844 58.871094 179.246094 C 58.355469 178.039062 58.828125 177.222656 60.105469 177.199219 C 61.042969 177.175781 61.984375 177.175781 62.917969 177.210938 C 63.808594 177.242188 64.53125 178.105469 64.089844 178.816406 C 62.605469 181.203125 63.753906 183.609375 63.875 186 C 63.925781 187.078125 64.15625 188.148438 64.5 189.296875 C 64.636719 188.96875 64.808594 188.648438 64.910156 188.3125 C 66.101562 184.476562 67.320312 180.65625 68.4375 176.804688 C 68.710938 175.867188 69.101562 175.707031 69.953125 175.929688 C 74.519531 177.121094 79.09375 178.300781 83.671875 179.4375 C 85.570312 179.90625 86.839844 181.066406 87.355469 182.886719 C 87.917969 184.863281 88.320312 186.894531 88.640625 188.921875 C 88.863281 190.34375 88.789062 191.8125 88.929688 193.257812 C 89.007812 194.101562 88.65625 194.476562 87.914062 194.773438 C 83.972656 196.355469 79.855469 197.25 75.671875 197.816406 C 66.691406 199.023438 57.6875 199.046875 48.695312 198.015625 C 43.957031 197.476562 39.300781 196.539062 34.84375 194.75 C 34.128906 194.464844 33.867188 194.089844 33.898438 193.300781 C 34.046875 189.96875 34.199219 186.652344 35.230469 183.433594 C 35.925781 181.261719 37.214844 179.871094 39.515625 179.328125 C 43.972656 178.28125 48.390625 177.101562 52.820312 175.941406 C 53.71875 175.707031 54.101562 175.871094 54.386719 176.863281 C 55.496094 180.71875 56.734375 184.535156 57.929688 188.363281 C 58.023438 188.667969 58.160156 188.960938 58.277344 189.253906 C 58.359375 189.242188 58.445312 189.226562 58.535156 189.210938 " fill-opacity="1" fill-rule="nonzero"/><path fill="#ca61c3" d="M 18.519531 175.285156 C 19.820312 179.480469 21.09375 183.558594 22.363281 187.636719 C 22.472656 187.625 22.585938 187.605469 22.695312 187.585938 C 22.953125 185.671875 23.164062 183.746094 23.480469 181.839844 C 23.6875 180.589844 23.644531 179.460938 23 178.308594 C 22.492188 177.402344 23.066406 176.617188 24.121094 176.589844 C 24.976562 176.566406 25.835938 176.566406 26.691406 176.597656 C 27.558594 176.625 28.210938 177.410156 27.761719 178.125 C 26.71875 179.808594 27.222656 181.507812 27.417969 183.214844 C 27.585938 184.675781 27.808594 186.128906 28.003906 187.585938 C 28.113281 187.601562 28.222656 187.625 28.332031 187.640625 C 29.601562 183.566406 30.875 179.492188 32.199219 175.242188 C 33.679688 175.601562 35.226562 175.976562 36.902344 176.382812 C 36.652344 176.601562 36.507812 176.746094 36.335938 176.863281 C 33.894531 178.585938 33.03125 181.199219 32.597656 183.941406 C 32.191406 186.476562 32.074219 189.0625 31.898438 191.632812 C 31.800781 193.070312 32.421875 194.1875 33.691406 194.925781 C 33.960938 195.085938 34.160156 195.367188 34.394531 195.59375 C 34.355469 195.683594 34.320312 195.769531 34.285156 195.851562 C 32.925781 195.957031 31.5625 196.101562 30.195312 196.148438 C 21.839844 196.433594 13.523438 196.171875 5.382812 194.023438 C 3.890625 193.625 2.433594 193.085938 0.992188 192.53125 C 0.671875 192.410156 0.238281 191.957031 0.25 191.671875 C 0.355469 188.464844 0.449219 185.257812 1.480469 182.164062 C 2.121094 180.253906 3.273438 179.039062 5.28125 178.550781 C 9.378906 177.570312 13.449219 176.484375 17.535156 175.445312 C 17.847656 175.367188 18.175781 175.339844 18.519531 175.285156 " fill-opacity="1" fill-rule="nonzero"/><path fill="#ca61c3" d="M 85.925781 176.386719 C 87.347656 176.035156 88.660156 175.722656 89.960938 175.375 C 90.582031 175.207031 90.785156 175.414062 90.96875 176.03125 C 92.023438 179.605469 93.144531 183.167969 94.257812 186.730469 C 94.347656 187.027344 94.488281 187.308594 94.816406 187.574219 C 95.144531 185.074219 95.515625 182.582031 95.765625 180.078125 C 95.8125 179.582031 95.410156 179.035156 95.1875 178.519531 C 94.65625 177.300781 95.085938 176.601562 96.394531 176.585938 C 97.1875 176.574219 97.976562 176.566406 98.769531 176.589844 C 99.746094 176.621094 100.304688 177.417969 99.828125 178.28125 C 99.167969 179.488281 99.144531 180.695312 99.363281 182.003906 C 99.671875 183.851562 99.863281 185.71875 100.097656 187.578125 C 100.214844 187.59375 100.328125 187.617188 100.441406 187.632812 C 101.722656 183.542969 102.996094 179.453125 104.320312 175.226562 C 106.035156 175.652344 107.785156 176.085938 109.527344 176.527344 C 112.273438 177.222656 115.007812 177.945312 117.757812 178.609375 C 119.484375 179.03125 120.558594 180.105469 121.167969 181.734375 C 122.128906 184.308594 122.398438 187.003906 122.507812 189.71875 C 122.613281 192.375 122.59375 192.394531 120.042969 193.246094 C 115.835938 194.648438 111.496094 195.398438 107.09375 195.8125 C 101.539062 196.339844 95.976562 196.375 90.410156 196.015625 C 90.113281 196 89.808594 196.015625 89.523438 195.941406 C 89.203125 195.855469 88.90625 195.6875 88.601562 195.550781 C 88.824219 195.308594 89.007812 195.011719 89.277344 194.839844 C 90.253906 194.195312 90.894531 193.316406 90.898438 192.148438 C 90.914062 188.402344 90.714844 184.671875 89.476562 181.085938 C 88.773438 179.035156 88.25 178.347656 85.925781 176.386719 " fill-opacity="1" fill-rule="nonzero"/><path fill="#ca61c3" d="M 107.511719 154.582031 C 107.488281 158.507812 106.699219 162.292969 104.976562 165.792969 C 104.152344 167.480469 102.972656 169.070312 101.664062 170.417969 C 99.097656 173.066406 94.992188 172.945312 92.328125 170.378906 C 90.128906 168.261719 88.8125 165.636719 87.933594 162.75 C 86.894531 159.339844 86.292969 155.863281 86.703125 152.296875 C 87.183594 148.136719 89.625 145.636719 93.5625 144.53125 C 96.449219 143.71875 99.300781 143.882812 102.0625 145.054688 C 105.546875 146.53125 107.230469 149.289062 107.507812 152.996094 C 107.546875 153.519531 107.511719 154.050781 107.511719 154.582031 " fill-opacity="1" fill-rule="nonzero"/><path fill="#ffcc33" d="M 72.886719 151.960938 C 72.847656 157.179688 71.914062 161.316406 70.191406 165.273438 C 69.289062 167.363281 67.953125 169.152344 66.28125 170.675781 C 63.535156 173.167969 59.261719 173.144531 56.503906 170.652344 C 53.988281 168.378906 52.5 165.488281 51.480469 162.300781 C 50.371094 158.820312 49.851562 155.261719 49.949219 151.609375 C 50.0625 147.332031 52.394531 143.972656 56.40625 142.476562 C 59.742188 141.230469 63.117188 141.234375 66.449219 142.488281 C 70.800781 144.128906 72.933594 147.621094 72.886719 151.960938 " fill-opacity="1" fill-rule="nonzero"/><path fill="#ca61c3" d="M 14.421875 154.867188 C 14.511719 153.695312 14.5 152.695312 14.671875 151.726562 C 15.304688 148.082031 17.507812 145.785156 20.960938 144.671875 C 23.640625 143.804688 26.339844 143.820312 29.019531 144.695312 C 33.09375 146.03125 35.394531 149.214844 35.4375 153.578125 C 35.472656 157.523438 34.757812 161.324219 33.285156 164.984375 C 32.484375 166.980469 31.320312 168.722656 29.820312 170.242188 C 27.027344 173.0625 22.820312 173.015625 20.019531 170.191406 C 17.050781 167.199219 15.792969 163.402344 14.992188 159.414062 C 14.679688 157.863281 14.59375 156.269531 14.421875 154.867188 " fill-opacity="1" fill-rule="nonzero"/><g clip-path="url(#5e3669c86f)"><path fill="#ffcc33" d="M 153.222656 230.148438 L 149.785156 225.96875 C 148.679688 224.339844 147.242188 222.933594 146.023438 221.390625 C 140.289062 214.085938 134.457031 206.859375 128.640625 199.617188 C 128.234375 199.113281 128.328125 198.835938 128.738281 198.425781 C 133.265625 193.9375 136.507812 188.648438 138.226562 182.5 C 141.566406 170.5625 139.703125 159.460938 132.390625 149.449219 C 126.210938 140.988281 117.761719 136.15625 107.441406 134.609375 C 106.332031 134.441406 105.222656 134.328125 104.117188 134.1875 L 100.746094 134.1875 C 99.828125 134.304688 98.914062 134.414062 98.003906 134.542969 C 89.085938 135.8125 81.792969 139.371094 76.089844 145.164062 L 81.816406 150.777344 C 89.796875 143.097656 99.351562 140.480469 110.351562 143.421875 C 124.949219 147.332031 133.953125 161.8125 131.40625 176.585938 C 128.554688 193.109375 113.871094 203.546875 97.394531 200.875 C 93.960938 200.316406 90.835938 199.207031 88 197.597656 L 83.984375 204.445312 C 94.453125 210.414062 107.472656 211.117188 118.929688 205.484375 C 120.3125 204.804688 120.304688 204.8125 121.167969 206.09375 C 127.359375 215.222656 133.554688 224.355469 139.753906 233.488281 C 140.007812 233.855469 140.28125 234.191406 140.578125 234.496094 L 140.582031 234.496094 C 140.585938 234.496094 140.585938 234.496094 140.589844 234.496094 L 143.582031 238.136719 C 145.773438 240.800781 149.695312 241.175781 152.347656 238.976562 L 152.382812 238.949219 C 155.035156 236.75 155.40625 232.8125 153.222656 230.148438 " fill-opacity="1" fill-rule="nonzero"/></g><path fill="#ffffff" d="M 156.933594 167.3125 L 151.933594 167.3125 L 151.933594 169.347656 L 162.738281 182.351562 L 168.285156 182.351562 L 158.925781 171.210938 C 164.007812 170.320312 166.589844 166.339844 166.589844 162.144531 C 166.589844 157.445312 163.371094 152.316406 156.933594 152.316406 L 146.132812 152.316406 L 146.132812 182.351562 L 150.367188 182.351562 L 150.367188 156.640625 L 156.933594 156.640625 C 160.535156 156.640625 162.3125 159.605469 162.3125 162.144531 C 162.3125 164.730469 160.535156 167.3125 156.933594 167.3125 Z M 156.933594 167.3125 " fill-opacity="1" fill-rule="nonzero"/><path fill="#ffffff" d="M 189.460938 178.074219 L 175.695312 178.074219 L 175.695312 169.347656 L 189.121094 169.347656 L 189.121094 165.027344 L 175.695312 165.027344 L 175.695312 156.679688 L 189.417969 156.679688 L 189.417969 152.402344 L 171.375 152.402344 L 171.375 182.351562 L 189.460938 182.351562 Z M 189.460938 178.074219 " fill-opacity="1" fill-rule="nonzero"/><path fill="#ffffff" d="M 195.007812 182.351562 L 199.285156 182.351562 L 199.285156 161.46875 L 207.035156 172.988281 L 209.449219 172.988281 L 217.203125 161.46875 L 217.203125 182.351562 L 221.4375 182.351562 L 221.4375 152.699219 L 218.050781 152.699219 L 208.265625 167.101562 L 198.480469 152.699219 L 195.007812 152.699219 Z M 195.007812 182.351562 " fill-opacity="1" fill-rule="nonzero"/><path fill="#ffffff" d="M 226.6875 167.609375 C 226.6875 171.71875 228.464844 175.488281 231.007812 178.199219 C 233.59375 180.910156 237.320312 182.5625 241.34375 182.5625 C 248.25 182.5625 253.671875 177.988281 255.363281 171.253906 L 251.171875 171.253906 C 249.644531 175.742188 245.832031 178.328125 241.34375 178.328125 C 238.503906 178.328125 235.667969 177.140625 233.804688 175.191406 C 231.941406 173.242188 230.839844 170.574219 230.839844 167.609375 C 230.839844 164.558594 231.980469 161.933594 233.847656 159.984375 C 235.710938 158.035156 238.503906 156.679688 241.34375 156.679688 C 245.707031 156.679688 249.351562 159.054688 250.917969 163.5 L 255.152344 163.5 C 253.457031 156.808594 248.121094 152.445312 241.34375 152.445312 C 237.320312 152.445312 233.464844 154.308594 230.878906 156.976562 C 228.339844 159.6875 226.6875 163.417969 226.6875 167.609375 Z M 226.6875 167.609375 " fill-opacity="1" fill-rule="nonzero"/><path fill="#ffffff" d="M 271.414062 167.3125 L 266.414062 167.3125 L 266.414062 169.347656 L 277.21875 182.351562 L 282.765625 182.351562 L 273.40625 171.210938 C 278.488281 170.320312 281.070312 166.339844 281.070312 162.144531 C 281.070312 157.445312 277.851562 152.316406 271.414062 152.316406 L 260.613281 152.316406 L 260.613281 182.351562 L 264.847656 182.351562 L 264.847656 156.640625 L 271.414062 156.640625 C 275.015625 156.640625 276.792969 159.605469 276.792969 162.144531 C 276.792969 164.730469 275.015625 167.3125 271.414062 167.3125 Z M 271.414062 167.3125 " fill-opacity="1" fill-rule="nonzero"/><path fill="#ffffff" d="M 296.449219 182.648438 C 301.53125 182.648438 307.375 179.511719 307.375 173.5 L 307.375 152.402344 L 303.054688 152.402344 L 303.054688 173.457031 C 303.054688 176.71875 299.539062 178.371094 296.449219 178.371094 C 293.3125 178.371094 289.796875 176.761719 289.796875 173.5 L 289.796875 152.402344 L 285.476562 152.402344 L 285.476562 173.457031 C 285.476562 179.511719 291.238281 182.648438 296.449219 182.648438 Z M 296.449219 182.648438 " fill-opacity="1" fill-rule="nonzero"/><path fill="#ffffff" d="M 324.0625 156.386719 L 329.566406 156.386719 L 329.566406 152.445312 L 314.277344 152.445312 L 314.277344 156.386719 L 319.78125 156.386719 L 319.78125 178.371094 L 314.277344 178.371094 L 314.277344 182.351562 L 329.566406 182.351562 L 329.566406 178.371094 L 324.0625 178.371094 Z M 324.0625 156.386719 " fill-opacity="1" fill-rule="nonzero"/><path fill="#ffffff" d="M 342.398438 156.46875 L 342.398438 182.351562 L 346.675781 182.351562 L 346.675781 156.46875 L 355.613281 156.46875 L 355.613281 152.402344 L 333.417969 152.402344 L 333.417969 156.46875 Z M 342.398438 156.46875 " fill-opacity="1" fill-rule="nonzero"/><path fill="#ffffff" d="M 182.539062 203.492188 L 176.265625 203.492188 L 176.265625 197.476562 L 174.125 197.476562 L 174.125 212.433594 L 176.265625 212.433594 L 176.265625 205.613281 L 182.539062 205.613281 L 182.539062 212.433594 L 184.699219 212.433594 L 184.699219 197.476562 L 182.539062 197.476562 Z M 182.539062 203.492188 " fill-opacity="1" fill-rule="nonzero"/><path fill="#ffffff" d="M 187.980469 198.027344 C 187.980469 198.832031 188.636719 199.234375 189.273438 199.234375 C 189.929688 199.234375 190.566406 198.832031 190.566406 198.027344 C 190.566406 197.222656 189.929688 196.839844 189.292969 196.839844 C 188.636719 196.839844 187.980469 197.242188 187.980469 198.027344 Z M 188.234375 200.84375 L 190.3125 200.84375 L 190.3125 212.433594 L 188.234375 212.433594 Z M 188.234375 200.84375 " fill-opacity="1" fill-rule="nonzero"/><path fill="#ffffff" d="M 195.863281 202.390625 L 195.863281 200.992188 L 193.808594 200.992188 L 193.808594 212.433594 L 195.863281 212.433594 L 195.863281 206.226562 C 195.863281 204.128906 197.472656 202.582031 199.402344 202.582031 C 199.738281 202.582031 200.101562 202.625 200.460938 202.730469 L 200.460938 200.910156 C 199.992188 200.804688 199.550781 200.738281 199.105469 200.738281 C 197.832031 200.738281 196.6875 201.246094 195.863281 202.390625 Z M 195.863281 202.390625 " fill-opacity="1" fill-rule="nonzero"/><path fill="#ffffff" d="M 213.957031 206.207031 C 213.722656 202.605469 210.925781 200.804688 208.085938 200.804688 C 205.058594 200.804688 202.132812 202.773438 202.132812 206.714844 C 202.132812 210.652344 205.101562 212.644531 208.042969 212.644531 C 210.394531 212.644531 212.746094 211.394531 213.617188 208.894531 L 211.476562 208.894531 C 210.800781 210.1875 209.484375 210.800781 208.066406 210.800781 C 206.351562 210.800781 204.210938 209.445312 204.210938 207.199219 L 213.914062 207.199219 C 213.957031 207.011719 213.976562 206.796875 213.976562 206.566406 C 213.976562 206.4375 213.976562 206.332031 213.957031 206.207031 Z M 211.773438 205.484375 L 204.296875 205.484375 C 204.71875 203.449219 206.414062 202.625 208.085938 202.625 C 209.738281 202.625 211.371094 203.429688 211.773438 205.484375 Z M 211.773438 205.484375 " fill-opacity="1" fill-rule="nonzero"/><path fill="#ffffff" d="M 216.945312 210.652344 L 215.398438 214.550781 L 217.285156 214.550781 L 219.253906 210.652344 Z M 216.945312 210.652344 " fill-opacity="1" fill-rule="nonzero"/><path fill="#ffffff" d="M 238.722656 202.816406 L 241.050781 202.816406 C 240.246094 198.789062 236.75 197.371094 233.847656 197.371094 C 229.675781 197.371094 226.414062 200.570312 226.414062 205.039062 C 226.414062 209.488281 229.613281 212.6875 233.847656 212.6875 C 236.601562 212.6875 239.695312 210.675781 240.734375 207.792969 L 240.734375 207.816406 C 240.945312 207.308594 241.050781 206.460938 241.160156 205.1875 L 233 205.1875 L 233 207.371094 L 238.59375 207.371094 C 237.703125 209.574219 235.714844 210.589844 233.847656 210.589844 C 230.882812 210.589844 228.59375 208.238281 228.59375 205.039062 C 228.59375 201.863281 230.882812 199.554688 233.847656 199.554688 C 235.777344 199.554688 238.109375 200.378906 238.722656 202.816406 Z M 238.722656 202.816406 " fill-opacity="1" fill-rule="nonzero"/><path fill="#ffffff" d="M 255.121094 206.207031 C 254.886719 202.605469 252.089844 200.804688 249.25 200.804688 C 246.222656 200.804688 243.296875 202.773438 243.296875 206.714844 C 243.296875 210.652344 246.265625 212.644531 249.207031 212.644531 C 251.558594 212.644531 253.910156 211.394531 254.78125 208.894531 L 252.640625 208.894531 C 251.964844 210.1875 250.648438 210.800781 249.230469 210.800781 C 247.515625 210.800781 245.375 209.445312 245.375 207.199219 L 255.078125 207.199219 C 255.121094 207.011719 255.140625 206.796875 255.140625 206.566406 C 255.140625 206.4375 255.140625 206.332031 255.121094 206.207031 Z M 252.9375 205.484375 L 245.460938 205.484375 C 245.882812 203.449219 247.578125 202.625 249.25 202.625 C 250.902344 202.625 252.535156 203.429688 252.9375 205.484375 Z M 252.9375 205.484375 " fill-opacity="1" fill-rule="nonzero"/><path fill="#ffffff" d="M 260.5625 200.972656 L 260.5625 198.429688 L 258.484375 198.832031 L 258.484375 200.972656 L 256.769531 200.972656 L 256.769531 202.625 L 258.484375 202.625 L 258.484375 209.066406 C 258.484375 211.734375 259.949219 212.496094 262.195312 212.496094 C 262.488281 212.496094 262.808594 212.476562 263.148438 212.453125 L 263.148438 210.71875 C 262.828125 210.738281 262.53125 210.761719 262.277344 210.761719 C 261.242188 210.761719 260.5625 210.441406 260.5625 209.085938 L 260.5625 202.625 L 263.082031 202.625 L 263.082031 200.972656 Z M 260.5625 200.972656 " fill-opacity="1" fill-rule="nonzero"/><path fill="#ffffff" d="M 279.058594 203.492188 L 272.785156 203.492188 L 272.785156 197.476562 L 270.644531 197.476562 L 270.644531 212.433594 L 272.785156 212.433594 L 272.785156 205.613281 L 279.058594 205.613281 L 279.058594 212.433594 L 281.21875 212.433594 L 281.21875 197.476562 L 279.058594 197.476562 Z M 279.058594 203.492188 " fill-opacity="1" fill-rule="nonzero"/><path fill="#ffffff" d="M 284.5 198.027344 C 284.5 198.832031 285.15625 199.234375 285.792969 199.234375 C 286.449219 199.234375 287.085938 198.832031 287.085938 198.027344 C 287.085938 197.222656 286.449219 196.839844 285.8125 196.839844 C 285.15625 196.839844 284.5 197.242188 284.5 198.027344 Z M 284.753906 200.84375 L 286.832031 200.84375 L 286.832031 212.433594 L 284.753906 212.433594 Z M 284.753906 200.84375 " fill-opacity="1" fill-rule="nonzero"/><path fill="#ffffff" d="M 292.382812 202.390625 L 292.382812 200.992188 L 290.328125 200.992188 L 290.328125 212.433594 L 292.382812 212.433594 L 292.382812 206.226562 C 292.382812 204.128906 293.992188 202.582031 295.921875 202.582031 C 296.257812 202.582031 296.621094 202.625 296.980469 202.730469 L 296.980469 200.910156 C 296.511719 200.804688 296.070312 200.738281 295.625 200.738281 C 294.351562 200.738281 293.207031 201.246094 292.382812 202.390625 Z M 292.382812 202.390625 " fill-opacity="1" fill-rule="nonzero"/><path fill="#ffffff" d="M 310.476562 206.207031 C 310.242188 202.605469 307.445312 200.804688 304.605469 200.804688 C 301.578125 200.804688 298.652344 202.773438 298.652344 206.714844 C 298.652344 210.652344 301.621094 212.644531 304.5625 212.644531 C 306.914062 212.644531 309.265625 211.394531 310.136719 208.894531 L 307.996094 208.894531 C 307.320312 210.1875 306.003906 210.800781 304.585938 210.800781 C 302.871094 210.800781 300.730469 209.445312 300.730469 207.199219 L 310.433594 207.199219 C 310.476562 207.011719 310.496094 206.796875 310.496094 206.566406 C 310.496094 206.4375 310.496094 206.332031 310.476562 206.207031 Z M 308.292969 205.484375 L 300.816406 205.484375 C 301.238281 203.449219 302.933594 202.625 304.605469 202.625 C 306.257812 202.625 307.890625 203.429688 308.292969 205.484375 Z M 308.292969 205.484375 " fill-opacity="1" fill-rule="nonzero"/><path fill="#ffffff" d="M 324.480469 197.605469 L 322.40625 197.605469 L 322.40625 202.457031 C 321.410156 201.097656 319.96875 200.78125 318.546875 200.78125 C 314.671875 200.78125 312.46875 203.367188 312.46875 206.648438 C 312.46875 210.0625 314.566406 212.625 318.570312 212.625 C 320.011719 212.601562 321.578125 212.136719 322.40625 210.886719 L 322.40625 212.433594 L 324.480469 212.433594 Z M 322.40625 206.691406 C 322.40625 209.445312 320.476562 210.78125 318.527344 210.78125 C 316.007812 210.78125 314.542969 209.042969 314.542969 206.691406 C 314.542969 204.636719 316.007812 202.605469 318.546875 202.605469 C 320.476562 202.605469 322.40625 203.960938 322.40625 206.691406 Z M 322.40625 206.691406 " fill-opacity="1" fill-rule="nonzero"/></svg>