<svg xmlns="http://www.w3.org/2000/svg" xmlns:xlink="http://www.w3.org/1999/xlink" zoomAndPan="magnify" preserveAspectRatio="xMidYMid meet" version="1.0" viewBox="0.25 134.19 355.37 106.81"><defs><g></g><clipPath id="e3e841ccf7"><path d="M 76 134.214844 L 155 134.214844 L 155 241 L 76 241 Z M 76 134.214844 " clip-rule="nonzero"></path></clipPath></defs><path fill="#ffcc33" d="M 58.535156 189.210938 C 58.871094 186.492188 59.257812 183.78125 59.507812 181.058594 C 59.558594 180.476562 59.125 179.839844 58.871094 179.246094 C 58.355469 178.039062 58.828125 177.222656 60.105469 177.199219 C 61.042969 177.175781 61.984375 177.175781 62.917969 177.210938 C 63.808594 177.242188 64.53125 178.105469 64.089844 178.816406 C 62.605469 181.203125 63.753906 183.609375 63.875 186 C 63.925781 187.078125 64.15625 188.148438 64.5 189.296875 C 64.636719 188.96875 64.808594 188.648438 64.910156 188.3125 C 66.101562 184.476562 67.320312 180.65625 68.4375 176.804688 C 68.710938 175.867188 69.101562 175.707031 69.953125 175.929688 C 74.519531 177.121094 79.09375 178.300781 83.671875 179.4375 C 85.570312 179.90625 86.839844 181.066406 87.355469 182.886719 C 87.917969 184.863281 88.320312 186.894531 88.640625 188.921875 C 88.863281 190.34375 88.789062 191.8125 88.929688 193.257812 C 89.007812 194.101562 88.65625 194.476562 87.914062 194.773438 C 83.972656 196.355469 79.855469 197.25 75.671875 197.816406 C 66.691406 199.023438 57.6875 199.046875 48.695312 198.015625 C 43.957031 197.476562 39.300781 196.539062 34.84375 194.75 C 34.128906 194.464844 33.867188 194.089844 33.898438 193.300781 C 34.046875 189.96875 34.199219 186.652344 35.230469 183.433594 C 35.925781 181.261719 37.214844 179.871094 39.515625 179.328125 C 43.972656 178.28125 48.390625 177.101562 52.820312 175.941406 C 53.71875 175.707031 54.101562 175.871094 54.386719 176.863281 C 55.496094 180.71875 56.734375 184.535156 57.929688 188.363281 C 58.023438 188.667969 58.160156 188.960938 58.277344 189.253906 C 58.359375 189.242188 58.445312 189.226562 58.535156 189.210938 " fill-opacity="1" fill-rule="nonzero"></path><path fill="#ca61c3" d="M 18.519531 175.285156 C 19.820312 179.480469 21.09375 183.558594 22.363281 187.636719 C 22.472656 187.625 22.585938 187.605469 22.695312 187.585938 C 22.953125 185.671875 23.164062 183.746094 23.480469 181.839844 C 23.6875 180.589844 23.644531 179.460938 23 178.308594 C 22.492188 177.402344 23.066406 176.617188 24.121094 176.589844 C 24.976562 176.566406 25.835938 176.566406 26.691406 176.597656 C 27.558594 176.625 28.210938 177.410156 27.761719 178.125 C 26.71875 179.808594 27.222656 181.507812 27.417969 183.214844 C 27.585938 184.675781 27.808594 186.128906 28.003906 187.585938 C 28.113281 187.601562 28.222656 187.625 28.332031 187.640625 C 29.601562 183.566406 30.875 179.492188 32.199219 175.242188 C 33.679688 175.601562 35.226562 175.976562 36.902344 176.382812 C 36.652344 176.601562 36.507812 176.746094 36.335938 176.863281 C 33.894531 178.585938 33.03125 181.199219 32.597656 183.941406 C 32.191406 186.476562 32.074219 189.0625 31.898438 191.632812 C 31.800781 193.070312 32.421875 194.1875 33.691406 194.925781 C 33.960938 195.085938 34.160156 195.367188 34.394531 195.59375 C 34.355469 195.683594 34.320312 195.769531 34.285156 195.851562 C 32.925781 195.957031 31.5625 196.101562 30.195312 196.148438 C 21.839844 196.433594 13.523438 196.171875 5.382812 194.023438 C 3.890625 193.625 2.433594 193.085938 0.992188 192.53125 C 0.671875 192.410156 0.238281 191.957031 0.25 191.671875 C 0.355469 188.464844 0.449219 185.257812 1.480469 182.164062 C 2.121094 180.253906 3.273438 179.039062 5.28125 178.550781 C 9.378906 177.570312 13.449219 176.484375 17.535156 175.445312 C 17.847656 175.367188 18.175781 175.339844 18.519531 175.285156 " fill-opacity="1" fill-rule="nonzero"></path><path fill="#ca61c3" d="M 85.925781 176.386719 C 87.347656 176.035156 88.660156 175.722656 89.960938 175.375 C 90.582031 175.207031 90.785156 175.414062 90.96875 176.03125 C 92.023438 179.605469 93.144531 183.167969 94.257812 186.730469 C 94.347656 187.027344 94.488281 187.308594 94.816406 187.574219 C 95.144531 185.074219 95.515625 182.582031 95.765625 180.078125 C 95.8125 179.582031 95.410156 179.035156 95.1875 178.519531 C 94.65625 177.300781 95.085938 176.601562 96.394531 176.585938 C 97.1875 176.574219 97.976562 176.566406 98.769531 176.589844 C 99.746094 176.621094 100.304688 177.417969 99.828125 178.28125 C 99.167969 179.488281 99.144531 180.695312 99.363281 182.003906 C 99.671875 183.851562 99.863281 185.71875 100.097656 187.578125 C 100.214844 187.59375 100.328125 187.617188 100.441406 187.632812 C 101.722656 183.542969 102.996094 179.453125 104.320312 175.226562 C 106.035156 175.652344 107.785156 176.085938 109.527344 176.527344 C 112.273438 177.222656 115.007812 177.945312 117.757812 178.609375 C 119.484375 179.03125 120.558594 180.105469 121.167969 181.734375 C 122.128906 184.308594 122.398438 187.003906 122.507812 189.71875 C 122.613281 192.375 122.59375 192.394531 120.042969 193.246094 C 115.835938 194.648438 111.496094 195.398438 107.09375 195.8125 C 101.539062 196.339844 95.976562 196.375 90.410156 196.015625 C 90.113281 196 89.808594 196.015625 89.523438 195.941406 C 89.203125 195.855469 88.90625 195.6875 88.601562 195.550781 C 88.824219 195.308594 89.007812 195.011719 89.277344 194.839844 C 90.253906 194.195312 90.894531 193.316406 90.898438 192.148438 C 90.914062 188.402344 90.714844 184.671875 89.476562 181.085938 C 88.773438 179.035156 88.25 178.347656 85.925781 176.386719 " fill-opacity="1" fill-rule="nonzero"></path><path fill="#ca61c3" d="M 107.511719 154.582031 C 107.488281 158.507812 106.699219 162.292969 104.976562 165.792969 C 104.152344 167.480469 102.972656 169.070312 101.664062 170.417969 C 99.097656 173.066406 94.992188 172.945312 92.328125 170.378906 C 90.128906 168.261719 88.8125 165.636719 87.933594 162.75 C 86.894531 159.339844 86.292969 155.863281 86.703125 152.296875 C 87.183594 148.136719 89.625 145.636719 93.5625 144.53125 C 96.449219 143.71875 99.300781 143.882812 102.0625 145.054688 C 105.546875 146.53125 107.230469 149.289062 107.507812 152.996094 C 107.546875 153.519531 107.511719 154.050781 107.511719 154.582031 " fill-opacity="1" fill-rule="nonzero"></path><path fill="#ffcc33" d="M 72.886719 151.960938 C 72.847656 157.179688 71.914062 161.316406 70.191406 165.273438 C 69.289062 167.363281 67.953125 169.152344 66.28125 170.675781 C 63.535156 173.167969 59.261719 173.144531 56.503906 170.652344 C 53.988281 168.378906 52.5 165.488281 51.480469 162.300781 C 50.371094 158.820312 49.851562 155.261719 49.949219 151.609375 C 50.0625 147.332031 52.394531 143.972656 56.40625 142.476562 C 59.742188 141.230469 63.117188 141.234375 66.449219 142.488281 C 70.800781 144.128906 72.933594 147.621094 72.886719 151.960938 " fill-opacity="1" fill-rule="nonzero"></path><path fill="#ca61c3" d="M 14.421875 154.867188 C 14.511719 153.695312 14.5 152.695312 14.671875 151.726562 C 15.304688 148.082031 17.507812 145.785156 20.960938 144.671875 C 23.640625 143.804688 26.339844 143.820312 29.019531 144.695312 C 33.09375 146.03125 35.394531 149.214844 35.4375 153.578125 C 35.472656 157.523438 34.757812 161.324219 33.285156 164.984375 C 32.484375 166.980469 31.320312 168.722656 29.820312 170.242188 C 27.027344 173.0625 22.820312 173.015625 20.019531 170.191406 C 17.050781 167.199219 15.792969 163.402344 14.992188 159.414062 C 14.679688 157.863281 14.59375 156.269531 14.421875 154.867188 " fill-opacity="1" fill-rule="nonzero"></path><g clip-path="url(#e3e841ccf7)"><path fill="#ffcc33" d="M 153.222656 230.148438 L 149.785156 225.96875 C 148.679688 224.339844 147.242188 222.933594 146.023438 221.390625 C 140.289062 214.085938 134.457031 206.859375 128.640625 199.617188 C 128.234375 199.113281 128.328125 198.835938 128.738281 198.425781 C 133.265625 193.9375 136.507812 188.648438 138.226562 182.5 C 141.566406 170.5625 139.703125 159.460938 132.390625 149.449219 C 126.210938 140.988281 117.761719 136.15625 107.441406 134.609375 C 106.332031 134.441406 105.222656 134.328125 104.117188 134.1875 L 100.746094 134.1875 C 99.828125 134.304688 98.914062 134.414062 98.003906 134.542969 C 89.085938 135.8125 81.792969 139.371094 76.089844 145.164062 L 81.816406 150.777344 C 89.796875 143.097656 99.351562 140.480469 110.351562 143.421875 C 124.949219 147.332031 133.953125 161.8125 131.40625 176.585938 C 128.554688 193.109375 113.871094 203.546875 97.394531 200.875 C 93.960938 200.316406 90.835938 199.207031 88 197.597656 L 83.984375 204.445312 C 94.453125 210.414062 107.472656 211.117188 118.929688 205.484375 C 120.3125 204.804688 120.304688 204.8125 121.167969 206.09375 C 127.359375 215.222656 133.554688 224.355469 139.753906 233.488281 C 140.007812 233.855469 140.28125 234.191406 140.578125 234.496094 L 140.582031 234.496094 C 140.585938 234.496094 140.585938 234.496094 140.589844 234.496094 L 143.582031 238.136719 C 145.773438 240.800781 149.695312 241.175781 152.347656 238.976562 L 152.382812 238.949219 C 155.035156 236.75 155.40625 232.8125 153.222656 230.148438 " fill-opacity="1" fill-rule="nonzero"></path></g><g fill="#000000" fill-opacity="1"><g transform="translate(142.487335, 182.349304)"><g><path d="M 14.445312 -15.039062 L 9.445312 -15.039062 L 9.445312 -13.003906 L 20.25 0 L 25.796875 0 L 16.4375 -11.140625 C 21.519531 -12.03125 24.101562 -16.011719 24.101562 -20.207031 C 24.101562 -24.90625 20.882812 -30.035156 14.445312 -30.035156 L 3.644531 -30.035156 L 3.644531 0 L 7.878906 0 L 7.878906 -25.710938 L 14.445312 -25.710938 C 18.046875 -25.710938 19.824219 -22.746094 19.824219 -20.207031 C 19.824219 -17.621094 18.046875 -15.039062 14.445312 -15.039062 Z M 14.445312 -15.039062 "></path></g></g></g><g fill="#000000" fill-opacity="1"><g transform="translate(167.730454, 182.349304)"><g><path d="M 21.730469 -4.277344 L 7.964844 -4.277344 L 7.964844 -13.003906 L 21.390625 -13.003906 L 21.390625 -17.324219 L 7.964844 -17.324219 L 7.964844 -25.671875 L 21.6875 -25.671875 L 21.6875 -29.949219 L 3.644531 -29.949219 L 3.644531 0 L 21.730469 0 Z M 21.730469 -4.277344 "></path></g></g></g><g fill="#000000" fill-opacity="1"><g transform="translate(191.364112, 182.349304)"><g><path d="M 3.644531 0 L 7.921875 0 L 7.921875 -20.882812 L 15.671875 -9.363281 L 18.085938 -9.363281 L 25.839844 -20.882812 L 25.839844 0 L 30.074219 0 L 30.074219 -29.652344 L 26.6875 -29.652344 L 16.902344 -15.25 L 7.117188 -29.652344 L 3.644531 -29.652344 Z M 3.644531 0 "></path></g></g></g><g fill="#000000" fill-opacity="1"><g transform="translate(225.035725, 182.349304)"><g><path d="M 1.652344 -14.742188 C 1.652344 -10.632812 3.429688 -6.863281 5.972656 -4.152344 C 8.558594 -1.441406 12.285156 0.210938 16.308594 0.210938 C 23.214844 0.210938 28.636719 -4.363281 30.328125 -11.097656 L 26.136719 -11.097656 C 24.609375 -6.609375 20.796875 -4.023438 16.308594 -4.023438 C 13.46875 -4.023438 10.632812 -5.210938 8.769531 -7.160156 C 6.90625 -9.109375 5.804688 -11.777344 5.804688 -14.742188 C 5.804688 -17.792969 6.945312 -20.417969 8.8125 -22.367188 C 10.675781 -24.316406 13.46875 -25.671875 16.308594 -25.671875 C 20.671875 -25.671875 24.316406 -23.296875 25.882812 -18.851562 L 30.117188 -18.851562 C 28.421875 -25.542969 23.085938 -29.90625 16.308594 -29.90625 C 12.285156 -29.90625 8.429688 -28.042969 5.84375 -25.375 C 3.304688 -22.664062 1.652344 -18.933594 1.652344 -14.742188 Z M 1.652344 -14.742188 "></path></g></g></g><g fill="#000000" fill-opacity="1"><g transform="translate(256.970819, 182.349304)"><g><path d="M 14.445312 -15.039062 L 9.445312 -15.039062 L 9.445312 -13.003906 L 20.25 0 L 25.796875 0 L 16.4375 -11.140625 C 21.519531 -12.03125 24.101562 -16.011719 24.101562 -20.207031 C 24.101562 -24.90625 20.882812 -30.035156 14.445312 -30.035156 L 3.644531 -30.035156 L 3.644531 0 L 7.878906 0 L 7.878906 -25.710938 L 14.445312 -25.710938 C 18.046875 -25.710938 19.824219 -22.746094 19.824219 -20.207031 C 19.824219 -17.621094 18.046875 -15.039062 14.445312 -15.039062 Z M 14.445312 -15.039062 "></path></g></g></g><g fill="#000000" fill-opacity="1"><g transform="translate(282.213938, 182.349304)"><g><path d="M 14.234375 0.296875 C 19.316406 0.296875 25.160156 -2.839844 25.160156 -8.851562 L 25.160156 -29.949219 L 20.839844 -29.949219 L 20.839844 -8.894531 C 20.839844 -5.632812 17.324219 -3.980469 14.234375 -3.980469 C 11.097656 -3.980469 7.582031 -5.589844 7.582031 -8.851562 L 7.582031 -29.949219 L 3.261719 -29.949219 L 3.261719 -8.894531 C 3.261719 -2.839844 9.023438 0.296875 14.234375 0.296875 Z M 14.234375 0.296875 "></path></g></g></g><g fill="#000000" fill-opacity="1"><g transform="translate(310.633631, 182.349304)"><g><path d="M 13.429688 -25.964844 L 18.933594 -25.964844 L 18.933594 -29.90625 L 3.644531 -29.90625 L 3.644531 -25.964844 L 9.148438 -25.964844 L 9.148438 -3.980469 L 3.644531 -3.980469 L 3.644531 0 L 18.933594 0 L 18.933594 -3.980469 L 13.429688 -3.980469 Z M 13.429688 -25.964844 "></path></g></g></g><g fill="#000000" fill-opacity="1"><g transform="translate(333.16608, 182.349304)"><g><path d="M 9.234375 -25.882812 L 9.234375 0 L 13.511719 0 L 13.511719 -25.882812 L 22.449219 -25.882812 L 22.449219 -29.949219 L 0.253906 -29.949219 L 0.253906 -25.882812 Z M 9.234375 -25.882812 "></path></g></g></g><g fill="#000000" fill-opacity="1"><g transform="translate(172.305784, 212.432518)"><g><path d="M 10.234375 -8.941406 L 3.960938 -8.941406 L 3.960938 -14.957031 L 1.820312 -14.957031 L 1.820312 0 L 3.960938 0 L 3.960938 -6.820312 L 10.234375 -6.820312 L 10.234375 0 L 12.394531 0 L 12.394531 -14.957031 L 10.234375 -14.957031 Z M 10.234375 -8.941406 "></path></g></g></g><g fill="#000000" fill-opacity="1"><g transform="translate(186.521134, 212.432518)"><g><path d="M 1.460938 -14.40625 C 1.460938 -13.601562 2.117188 -13.199219 2.753906 -13.199219 C 3.410156 -13.199219 4.046875 -13.601562 4.046875 -14.40625 C 4.046875 -15.210938 3.410156 -15.59375 2.773438 -15.59375 C 2.117188 -15.59375 1.460938 -15.191406 1.460938 -14.40625 Z M 1.714844 -11.589844 L 3.792969 -11.589844 L 3.792969 0 L 1.714844 0 Z M 1.714844 -11.589844 "></path></g></g></g><g fill="#000000" fill-opacity="1"><g transform="translate(192.219982, 212.432518)"><g><path d="M 3.644531 -10.042969 L 3.644531 -11.441406 L 1.589844 -11.441406 L 1.589844 0 L 3.644531 0 L 3.644531 -6.207031 C 3.644531 -8.304688 5.253906 -9.851562 7.183594 -9.851562 C 7.519531 -9.851562 7.882812 -9.808594 8.242188 -9.703125 L 8.242188 -11.523438 C 7.773438 -11.628906 7.332031 -11.695312 6.886719 -11.695312 C 5.613281 -11.695312 4.46875 -11.1875 3.644531 -10.042969 Z M 3.644531 -10.042969 "></path></g></g></g><g fill="#000000" fill-opacity="1"><g transform="translate(201.117821, 212.432518)"><g><path d="M 12.839844 -6.226562 C 12.605469 -9.828125 9.808594 -11.628906 6.96875 -11.628906 C 3.941406 -11.628906 1.015625 -9.660156 1.015625 -5.71875 C 1.015625 -1.78125 3.984375 0.210938 6.925781 0.210938 C 9.277344 0.210938 11.628906 -1.039062 12.5 -3.539062 L 10.359375 -3.539062 C 9.683594 -2.246094 8.367188 -1.632812 6.949219 -1.632812 C 5.234375 -1.632812 3.09375 -2.988281 3.09375 -5.234375 L 12.796875 -5.234375 C 12.839844 -5.421875 12.859375 -5.636719 12.859375 -5.867188 C 12.859375 -5.996094 12.859375 -6.101562 12.839844 -6.226562 Z M 10.65625 -6.949219 L 3.179688 -6.949219 C 3.601562 -8.984375 5.296875 -9.808594 6.96875 -9.808594 C 8.621094 -9.808594 10.253906 -9.003906 10.65625 -6.949219 Z M 10.65625 -6.949219 "></path></g></g></g><g fill="#000000" fill-opacity="1"><g transform="translate(215.100131, 212.432518)"><g><path d="M 1.84375 -1.78125 L 0.296875 2.117188 L 2.183594 2.117188 L 4.152344 -1.78125 Z M 1.84375 -1.78125 "></path></g></g></g><g fill="#000000" fill-opacity="1"><g transform="translate(220.248171, 212.432518)"><g></g></g></g><g fill="#000000" fill-opacity="1"><g transform="translate(225.523318, 212.432518)"><g><path d="M 13.199219 -9.617188 L 15.527344 -9.617188 C 14.722656 -13.644531 11.226562 -15.0625 8.324219 -15.0625 C 4.152344 -15.0625 0.890625 -11.863281 0.890625 -7.394531 C 0.890625 -2.945312 4.089844 0.253906 8.324219 0.253906 C 11.078125 0.253906 14.171875 -1.757812 15.210938 -4.640625 L 15.210938 -4.617188 C 15.421875 -5.125 15.527344 -5.972656 15.636719 -7.246094 L 7.476562 -7.246094 L 7.476562 -5.0625 L 13.070312 -5.0625 C 12.179688 -2.859375 10.191406 -1.84375 8.324219 -1.84375 C 5.359375 -1.84375 3.070312 -4.195312 3.070312 -7.394531 C 3.070312 -10.570312 5.359375 -12.878906 8.324219 -12.878906 C 10.253906 -12.878906 12.585938 -12.054688 13.199219 -9.617188 Z M 13.199219 -9.617188 "></path></g></g></g><g fill="#000000" fill-opacity="1"><g transform="translate(242.280919, 212.432518)"><g><path d="M 12.839844 -6.226562 C 12.605469 -9.828125 9.808594 -11.628906 6.96875 -11.628906 C 3.941406 -11.628906 1.015625 -9.660156 1.015625 -5.71875 C 1.015625 -1.78125 3.984375 0.210938 6.925781 0.210938 C 9.277344 0.210938 11.628906 -1.039062 12.5 -3.539062 L 10.359375 -3.539062 C 9.683594 -2.246094 8.367188 -1.632812 6.949219 -1.632812 C 5.234375 -1.632812 3.09375 -2.988281 3.09375 -5.234375 L 12.796875 -5.234375 C 12.839844 -5.421875 12.859375 -5.636719 12.859375 -5.867188 C 12.859375 -5.996094 12.859375 -6.101562 12.839844 -6.226562 Z M 10.65625 -6.949219 L 3.179688 -6.949219 C 3.601562 -8.984375 5.296875 -9.808594 6.96875 -9.808594 C 8.621094 -9.808594 10.253906 -9.003906 10.65625 -6.949219 Z M 10.65625 -6.949219 "></path></g></g></g><g fill="#000000" fill-opacity="1"><g transform="translate(256.263229, 212.432518)"><g><path d="M 4.300781 -11.460938 L 4.300781 -14.003906 L 2.222656 -13.601562 L 2.222656 -11.460938 L 0.507812 -11.460938 L 0.507812 -9.808594 L 2.222656 -9.808594 L 2.222656 -3.367188 C 2.222656 -0.699219 3.6875 0.0625 5.933594 0.0625 C 6.226562 0.0625 6.546875 0.0429688 6.886719 0.0195312 L 6.886719 -1.714844 C 6.566406 -1.695312 6.269531 -1.671875 6.015625 -1.671875 C 4.980469 -1.671875 4.300781 -1.992188 4.300781 -3.347656 L 4.300781 -9.808594 L 6.820312 -9.808594 L 6.820312 -11.460938 Z M 4.300781 -11.460938 "></path></g></g></g><g fill="#000000" fill-opacity="1"><g transform="translate(263.550977, 212.432518)"><g></g></g></g><g fill="#000000" fill-opacity="1"><g transform="translate(268.826124, 212.432518)"><g><path d="M 10.234375 -8.941406 L 3.960938 -8.941406 L 3.960938 -14.957031 L 1.820312 -14.957031 L 1.820312 0 L 3.960938 0 L 3.960938 -6.820312 L 10.234375 -6.820312 L 10.234375 0 L 12.394531 0 L 12.394531 -14.957031 L 10.234375 -14.957031 Z M 10.234375 -8.941406 "></path></g></g></g><g fill="#000000" fill-opacity="1"><g transform="translate(283.041474, 212.432518)"><g><path d="M 1.460938 -14.40625 C 1.460938 -13.601562 2.117188 -13.199219 2.753906 -13.199219 C 3.410156 -13.199219 4.046875 -13.601562 4.046875 -14.40625 C 4.046875 -15.210938 3.410156 -15.59375 2.773438 -15.59375 C 2.117188 -15.59375 1.460938 -15.191406 1.460938 -14.40625 Z M 1.714844 -11.589844 L 3.792969 -11.589844 L 3.792969 0 L 1.714844 0 Z M 1.714844 -11.589844 "></path></g></g></g><g fill="#000000" fill-opacity="1"><g transform="translate(288.740321, 212.432518)"><g><path d="M 3.644531 -10.042969 L 3.644531 -11.441406 L 1.589844 -11.441406 L 1.589844 0 L 3.644531 0 L 3.644531 -6.207031 C 3.644531 -8.304688 5.253906 -9.851562 7.183594 -9.851562 C 7.519531 -9.851562 7.882812 -9.808594 8.242188 -9.703125 L 8.242188 -11.523438 C 7.773438 -11.628906 7.332031 -11.695312 6.886719 -11.695312 C 5.613281 -11.695312 4.46875 -11.1875 3.644531 -10.042969 Z M 3.644531 -10.042969 "></path></g></g></g><g fill="#000000" fill-opacity="1"><g transform="translate(297.638161, 212.432518)"><g><path d="M 12.839844 -6.226562 C 12.605469 -9.828125 9.808594 -11.628906 6.96875 -11.628906 C 3.941406 -11.628906 1.015625 -9.660156 1.015625 -5.71875 C 1.015625 -1.78125 3.984375 0.210938 6.925781 0.210938 C 9.277344 0.210938 11.628906 -1.039062 12.5 -3.539062 L 10.359375 -3.539062 C 9.683594 -2.246094 8.367188 -1.632812 6.949219 -1.632812 C 5.234375 -1.632812 3.09375 -2.988281 3.09375 -5.234375 L 12.796875 -5.234375 C 12.839844 -5.421875 12.859375 -5.636719 12.859375 -5.867188 C 12.859375 -5.996094 12.859375 -6.101562 12.839844 -6.226562 Z M 10.65625 -6.949219 L 3.179688 -6.949219 C 3.601562 -8.984375 5.296875 -9.808594 6.96875 -9.808594 C 8.621094 -9.808594 10.253906 -9.003906 10.65625 -6.949219 Z M 10.65625 -6.949219 "></path></g></g></g><g fill="#000000" fill-opacity="1"><g transform="translate(311.620471, 212.432518)"><g><path d="M 12.859375 -14.828125 L 10.785156 -14.828125 L 10.785156 -9.976562 C 9.789062 -11.335938 8.347656 -11.652344 6.925781 -11.652344 C 3.050781 -11.652344 0.847656 -9.066406 0.847656 -5.785156 C 0.847656 -2.371094 2.945312 0.191406 6.949219 0.191406 C 8.390625 0.167969 9.957031 -0.296875 10.785156 -1.546875 L 10.785156 0 L 12.859375 0 Z M 10.785156 -5.742188 C 10.785156 -2.988281 8.855469 -1.652344 6.90625 -1.652344 C 4.386719 -1.652344 2.921875 -3.390625 2.921875 -5.742188 C 2.921875 -7.796875 4.386719 -9.828125 6.925781 -9.828125 C 8.855469 -9.828125 10.785156 -8.472656 10.785156 -5.742188 Z M 10.785156 -5.742188 "></path></g></g></g></svg>