<svg width="1512" height="492" viewBox="0 0 1512 492" fill="none" xmlns="http://www.w3.org/2000/svg">
<path fill-rule="evenodd" clip-rule="evenodd" d="M1574 492H1539.92C1505.83 492 1437.67 492 1369.5 441.259C1301.33 390.519 1233.17 289.037 1165 268.741C1096.83 248.444 1028.67 309.333 960.5 349.926C892.333 390.519 824.167 410.815 756 420.963C687.833 431.111 619.667 431.111 551.5 360.074C483.333 289.037 415.167 146.963 347 146.963C278.833 146.963 210.667 289.037 142.5 289.037C74.3334 289.037 6.16663 146.963 -27.9166 75.9259L-62 4.88892V-56H-27.9166C6.16663 -56 74.3334 -56 142.5 -56C210.667 -56 278.833 -56 347 -56C415.167 -56 483.333 -56 551.5 -56C619.667 -56 687.833 -56 756 -56C824.167 -56 892.333 -56 960.5 -56C1028.67 -56 1096.83 -56 1165 -56C1233.17 -56 1301.33 -56 1369.5 -56C1437.67 -56 1505.83 -56 1539.92 -56H1574V492Z" fill="#CA61C3"/>
</svg>
