<svg width="1512" height="419" viewBox="0 0 1512 419" fill="none" xmlns="http://www.w3.org/2000/svg">
<path fill-rule="evenodd" clip-rule="evenodd" d="M0 179.571L31.9167 189.548C63.8333 199.524 127.667 219.476 191.5 209.5C255.333 199.524 319.167 159.619 383 109.738C446.833 59.8571 510.667 0 574.5 0C638.333 0 702.167 59.8571 766 99.7619C829.833 139.667 893.667 159.619 957.5 159.619C1021.33 159.619 1085.17 139.667 1149 139.667C1212.83 139.667 1276.67 159.619 1340.5 189.548C1404.33 219.476 1468.17 259.381 1500.08 279.333L1532 299.286V419H1500.08C1468.17 419 1404.33 419 1340.5 419C1276.67 419 1212.83 419 1149 419C1085.17 419 1021.33 419 957.5 419C893.667 419 829.833 419 766 419C702.167 419 638.333 419 574.5 419C510.667 419 446.833 419 383 419C319.167 419 255.333 419 191.5 419C127.667 419 63.8333 419 31.9167 419H0V179.571Z" fill="#CA61C3"/>
</svg>
