<svg width="66" height="66" viewBox="0 0 66 66" fill="none" xmlns="http://www.w3.org/2000/svg">
<g clip-path="url(#clip0_1397_3697)">
<path d="M41.8 55V57.2C42.3835 57.2 42.9431 56.9682 43.3556 56.5556C43.7682 56.1431 44 55.5835 44 55H41.8ZM24.2 55H22C22 55.5835 22.2318 56.1431 22.6444 56.5556C23.0569 56.9682 23.6165 57.2 24.2 57.2V55ZM26.4 66H39.6V61.6H26.4V66ZM15.752 28.16L15.708 28.468L20.064 29.084L20.1124 28.776L15.752 28.16ZM33 13.2C28.8057 13.1993 24.7519 14.712 21.5833 17.4602C18.4148 20.2085 16.3442 24.0077 15.752 28.16L20.1124 28.776C20.5562 25.6734 22.1 22.8349 24.4682 20.7819C26.8364 18.7289 29.8658 17.5991 33 17.6V13.2ZM50.248 28.16C49.6558 24.0077 47.5852 20.2085 44.4167 17.4602C41.2481 14.712 37.1943 13.1993 33 13.2V17.6C36.134 17.6001 39.1628 18.7302 41.5309 20.783C43.8989 22.8359 45.4473 25.6737 45.892 28.776L50.248 28.16ZM50.292 28.468L50.248 28.16L45.892 28.776L45.9316 29.084L50.292 28.468ZM46.816 41.6196C49.588 38.038 50.9872 33.374 50.292 28.468L45.936 29.0884C46.188 30.8186 46.0879 32.5819 45.6419 34.2725C45.1958 35.9631 44.4128 37.5462 43.34 38.9268L46.816 41.6196ZM39.6 47.96V55H44V47.9644H39.6V47.96ZM41.8 52.8H24.2V57.2H41.8V52.8ZM26.4 55V47.9644H22V55H26.4ZM15.708 28.468C15.3735 30.7813 15.509 33.1382 16.1062 35.3979C16.7035 37.6576 17.7503 39.7737 19.184 41.6196L22.6644 38.9268C21.5916 37.5462 20.8042 35.9631 20.3581 34.2725C19.9121 32.5819 19.812 30.8142 20.064 29.084L15.708 28.468ZM26.4 47.96C26.4 44.3388 24.4728 41.2588 22.66 38.9224L19.184 41.6196C20.8692 43.7976 22 45.8744 22 47.96H26.4ZM43.34 38.9224C41.5228 41.2632 39.6 44.3388 39.6 47.96H44C44 45.8744 45.1308 43.7976 46.816 41.6196L43.34 38.9224ZM30.8 0V8.8H35.2V0H30.8ZM0 35.2H8.8V30.8H0V35.2ZM57.2 35.2H66V30.8H57.2V35.2ZM14.7576 16.0424L8.1576 9.4424L5.0424 12.5576L11.6424 19.1576L14.7576 16.0424ZM54.3576 19.1576L60.9576 12.5576L57.8424 9.4424L51.2424 16.0424L54.3576 19.1576Z" fill="black"/>
</g>
<defs>
<clipPath id="clip0_1397_3697">
<rect width="66" height="66" fill="white"/>
</clipPath>
</defs>
</svg>
