<svg width="66" height="66" viewBox="0 0 66 66" fill="none" xmlns="http://www.w3.org/2000/svg">
<path d="M57.75 43.3125V37.125C57.75 34.937 56.8808 32.8385 55.3336 31.2914C53.7865 29.7442 51.688 28.875 49.5 28.875C47.312 28.875 45.2135 29.7442 43.6664 31.2914C42.1192 32.8385 41.25 34.937 41.25 37.125V43.3125C40.1563 43.3136 39.1077 43.7485 38.3344 44.5219C37.561 45.2952 37.1261 46.3438 37.125 47.4375V57.75C37.1261 58.8437 37.561 59.8923 38.3344 60.6656C39.1077 61.439 40.1563 61.8739 41.25 61.875H57.75C58.8437 61.8739 59.8923 61.439 60.6656 60.6656C61.439 59.8923 61.8739 58.8437 61.875 57.75V47.4375C61.8739 46.3438 61.439 45.2952 60.6656 44.5219C59.8923 43.7485 58.8437 43.3136 57.75 43.3125ZM45.375 37.125C45.375 36.031 45.8096 34.9818 46.5832 34.2082C47.3568 33.4346 48.406 33 49.5 33C50.594 33 51.6432 33.4346 52.4168 34.2082C53.1904 34.9818 53.625 36.031 53.625 37.125V43.3125H45.375V37.125ZM41.25 57.75V47.4375H57.75V57.75H41.25Z" fill="black"/>
<path d="M48.4667 18.7378L34.4582 4.72931C34.0715 4.34249 33.547 4.12512 33 4.125H12.375C11.282 4.12826 10.2347 4.56391 9.46179 5.33679C8.68891 6.10967 8.25326 7.15699 8.25 8.25V57.75C8.25326 58.843 8.68891 59.8903 9.46179 60.6632C10.2347 61.4361 11.282 61.8717 12.375 61.875H28.875V57.75H12.375V8.25H28.875V20.625C28.8761 21.7187 29.311 22.7673 30.0844 23.5406C30.8577 24.314 31.9063 24.7489 33 24.75H45.9772C46.6735 24.7494 47.354 24.5425 47.9328 24.1553C48.5115 23.7682 48.9626 23.2183 49.229 22.5749C49.4953 21.9316 49.5651 21.2238 49.4294 20.5408C49.2938 19.8579 48.9587 19.2305 48.4667 18.7378ZM33 20.625V9.10388L44.5191 20.625H33Z" fill="black"/>
</svg>
