<svg width="60" height="56" viewBox="0 0 60 56" fill="none" xmlns="http://www.w3.org/2000/svg">
<path d="M59.625 41.75L45.875 55.5L36.25 45.875L40.375 41.75L45.875 47.25L55.5 37.625L59.625 41.75ZM55.5 32.125V32.95C53.7675 31.96 51.8425 31.2725 49.835 30.9425C49.3125 29.2375 47.745 28 45.875 28H41.75V14.25H28V10.125C28 7.8425 26.1575 6 23.875 6C21.5925 6 19.75 7.8425 19.75 10.125V14.25H6V20.08C10.84 21.95 14.25 26.625 14.25 32.125C14.25 37.625 10.8125 42.3 6 44.17V50H11.83C12.7723 47.5711 14.4267 45.4837 16.5761 44.0115C18.7256 42.5393 21.2697 41.751 23.875 41.75C26.5425 41.75 29.0175 42.575 31.08 43.95L30.75 47.25C30.75 50.2475 31.5475 53.08 32.95 55.5H31.3V54.675C31.3 50.5775 28 47.25 23.875 47.25C19.75 47.25 16.45 50.5775 16.45 54.675V55.5H6C2.975 55.5 0.5 53.025 0.5 50V39.55H1.325C5.4225 39.55 8.75 36.25 8.75 32.125C8.75 28 5.4225 24.7 1.325 24.7H0.5V14.25C0.5 11.225 2.975 8.75 6 8.75H14.36C15.02 4.075 19.035 0.5 23.875 0.5C28.715 0.5 32.73 4.075 33.39 8.75H41.75C44.775 8.75 47.25 11.225 47.25 14.25V22.61C51.925 23.27 55.5 27.285 55.5 32.125Z" fill="black"/>
</svg>
