<svg xmlns="http://www.w3.org/2000/svg" xmlns:xlink="http://www.w3.org/1999/xlink" width="500" zoomAndPan="magnify" viewBox="0 0 375 374.999991" height="500" preserveAspectRatio="xMidYMid meet" version="1.0"><defs><g/></defs><g fill="#000000" fill-opacity="1"><g transform="translate(40.525431, 190.125973)"><g><path d="M 19.894531 -20.710938 L 13.011719 -20.710938 L 13.011719 -17.910156 L 27.886719 0 L 35.53125 0 L 22.636719 -15.34375 C 29.636719 -16.570312 33.195312 -22.054688 33.195312 -27.828125 C 33.195312 -34.304688 28.761719 -41.363281 19.894531 -41.363281 L 5.015625 -41.363281 L 5.015625 0 L 10.851562 0 L 10.851562 -35.414062 L 19.894531 -35.414062 C 24.851562 -35.414062 27.304688 -31.328125 27.304688 -27.828125 C 27.304688 -24.269531 24.851562 -20.710938 19.894531 -20.710938 Z M 19.894531 -20.710938 "/></g></g></g><g fill="#000000" fill-opacity="1"><g transform="translate(75.291945, 190.125973)"><g><path d="M 29.929688 -5.890625 L 10.96875 -5.890625 L 10.96875 -17.910156 L 29.460938 -17.910156 L 29.460938 -23.863281 L 10.96875 -23.863281 L 10.96875 -35.355469 L 29.871094 -35.355469 L 29.871094 -41.246094 L 5.015625 -41.246094 L 5.015625 0 L 29.929688 0 Z M 29.929688 -5.890625 "/></g></g></g><g fill="#000000" fill-opacity="1"><g transform="translate(107.841803, 190.125973)"><g><path d="M 5.015625 0 L 10.910156 0 L 10.910156 -28.761719 L 21.585938 -12.894531 L 24.910156 -12.894531 L 35.589844 -28.761719 L 35.589844 0 L 41.421875 0 L 41.421875 -40.839844 L 36.753906 -40.839844 L 23.277344 -21.003906 L 9.800781 -40.839844 L 5.015625 -40.839844 Z M 5.015625 0 "/></g></g></g><g fill="#000000" fill-opacity="1"><g transform="translate(154.216603, 190.125973)"><g><path d="M 2.273438 -20.300781 C 2.273438 -14.644531 4.726562 -9.453125 8.226562 -5.71875 C 11.785156 -1.984375 16.917969 0.292969 22.460938 0.292969 C 31.972656 0.292969 39.4375 -6.007812 41.773438 -15.285156 L 35.996094 -15.285156 C 33.894531 -9.101562 28.644531 -5.542969 22.460938 -5.542969 C 18.550781 -5.542969 14.644531 -7.175781 12.078125 -9.859375 C 9.507812 -12.542969 7.992188 -16.21875 7.992188 -20.300781 C 7.992188 -24.503906 9.566406 -28.121094 12.136719 -30.804688 C 14.703125 -33.488281 18.550781 -35.355469 22.460938 -35.355469 C 28.46875 -35.355469 33.488281 -32.085938 35.644531 -25.960938 L 41.480469 -25.960938 C 39.148438 -35.179688 31.796875 -41.1875 22.460938 -41.1875 C 16.917969 -41.1875 11.609375 -38.621094 8.050781 -34.945312 C 4.550781 -31.210938 2.273438 -26.078125 2.273438 -20.300781 Z M 2.273438 -20.300781 "/></g></g></g><g fill="#000000" fill-opacity="1"><g transform="translate(198.199755, 190.125973)"><g><path d="M 19.894531 -20.710938 L 13.011719 -20.710938 L 13.011719 -17.910156 L 27.886719 0 L 35.53125 0 L 22.636719 -15.34375 C 29.636719 -16.570312 33.195312 -22.054688 33.195312 -27.828125 C 33.195312 -34.304688 28.761719 -41.363281 19.894531 -41.363281 L 5.015625 -41.363281 L 5.015625 0 L 10.851562 0 L 10.851562 -35.414062 L 19.894531 -35.414062 C 24.851562 -35.414062 27.304688 -31.328125 27.304688 -27.828125 C 27.304688 -24.269531 24.851562 -20.710938 19.894531 -20.710938 Z M 19.894531 -20.710938 "/></g></g></g><g fill="#000000" fill-opacity="1"><g transform="translate(232.966269, 190.125973)"><g><path d="M 19.601562 0.410156 C 26.605469 0.410156 34.65625 -3.910156 34.65625 -12.191406 L 34.65625 -41.246094 L 28.703125 -41.246094 L 28.703125 -12.25 C 28.703125 -7.757812 23.863281 -5.484375 19.601562 -5.484375 C 15.285156 -5.484375 10.441406 -7.699219 10.441406 -12.191406 L 10.441406 -41.246094 L 4.492188 -41.246094 L 4.492188 -12.25 C 4.492188 -3.910156 12.425781 0.410156 19.601562 0.410156 Z M 19.601562 0.410156 "/></g></g></g><g fill="#000000" fill-opacity="1"><g transform="translate(272.107775, 190.125973)"><g><path d="M 18.496094 -35.761719 L 26.078125 -35.761719 L 26.078125 -41.1875 L 5.015625 -41.1875 L 5.015625 -35.761719 L 12.601562 -35.761719 L 12.601562 -5.484375 L 5.015625 -5.484375 L 5.015625 0 L 26.078125 0 L 26.078125 -5.484375 L 18.496094 -5.484375 Z M 18.496094 -35.761719 "/></g></g></g><g fill="#000000" fill-opacity="1"><g transform="translate(303.140972, 190.125973)"><g><path d="M 12.71875 -35.644531 L 12.71875 0 L 18.609375 0 L 18.609375 -35.644531 L 30.921875 -35.644531 L 30.921875 -41.246094 L 0.351562 -41.246094 L 0.351562 -35.644531 Z M 12.71875 -35.644531 "/></g></g></g><g fill="#000000" fill-opacity="1"><g transform="translate(81.593407, 231.558597)"><g><path d="M 14.09375 -12.3125 L 5.457031 -12.3125 L 5.457031 -20.597656 L 2.507812 -20.597656 L 2.507812 0 L 5.457031 0 L 5.457031 -9.394531 L 14.09375 -9.394531 L 14.09375 0 L 17.070312 0 L 17.070312 -20.597656 L 14.09375 -20.597656 Z M 14.09375 -12.3125 "/></g></g></g><g fill="#000000" fill-opacity="1"><g transform="translate(101.17174, 231.558597)"><g><path d="M 2.011719 -19.839844 C 2.011719 -18.730469 2.917969 -18.179688 3.792969 -18.179688 C 4.699219 -18.179688 5.574219 -18.730469 5.574219 -19.839844 C 5.574219 -20.949219 4.699219 -21.476562 3.824219 -21.476562 C 2.917969 -21.476562 2.011719 -20.921875 2.011719 -19.839844 Z M 2.363281 -15.960938 L 5.222656 -15.960938 L 5.222656 0 L 2.363281 0 Z M 2.363281 -15.960938 "/></g></g></g><g fill="#000000" fill-opacity="1"><g transform="translate(109.020574, 231.558597)"><g><path d="M 5.019531 -13.832031 L 5.019531 -15.757812 L 2.1875 -15.757812 L 2.1875 0 L 5.019531 0 L 5.019531 -8.550781 C 5.019531 -11.4375 7.234375 -13.566406 9.890625 -13.566406 C 10.359375 -13.566406 10.855469 -13.507812 11.351562 -13.363281 L 11.351562 -15.871094 C 10.707031 -16.019531 10.09375 -16.105469 9.484375 -16.105469 C 7.730469 -16.105469 6.15625 -15.40625 5.019531 -13.832031 Z M 5.019531 -13.832031 "/></g></g></g><g fill="#000000" fill-opacity="1"><g transform="translate(121.275275, 231.558597)"><g><path d="M 17.683594 -8.578125 C 17.359375 -13.539062 13.507812 -16.019531 9.597656 -16.019531 C 5.425781 -16.019531 1.402344 -13.304688 1.402344 -7.878906 C 1.402344 -2.449219 5.484375 0.292969 9.542969 0.292969 C 12.78125 0.292969 16.019531 -1.429688 17.214844 -4.871094 L 14.269531 -4.871094 C 13.335938 -3.09375 11.523438 -2.246094 9.570312 -2.246094 C 7.207031 -2.246094 4.261719 -4.113281 4.261719 -7.207031 L 17.625 -7.207031 C 17.683594 -7.46875 17.710938 -7.761719 17.710938 -8.082031 C 17.710938 -8.257812 17.710938 -8.402344 17.683594 -8.578125 Z M 14.675781 -9.570312 L 4.375 -9.570312 C 4.960938 -12.371094 7.292969 -13.507812 9.597656 -13.507812 C 11.875 -13.507812 14.121094 -12.402344 14.675781 -9.570312 Z M 14.675781 -9.570312 "/></g></g></g><g fill="#000000" fill-opacity="1"><g transform="translate(140.532648, 231.558597)"><g><path d="M 2.539062 -2.449219 L 0.410156 2.917969 L 3.003906 2.917969 L 5.71875 -2.449219 Z M 2.539062 -2.449219 "/></g></g></g><g fill="#000000" fill-opacity="1"><g transform="translate(147.622874, 231.558597)"><g/></g></g><g fill="#000000" fill-opacity="1"><g transform="translate(154.88816, 231.558597)"><g><path d="M 18.179688 -13.246094 L 21.386719 -13.246094 C 20.277344 -18.789062 15.464844 -20.746094 11.46875 -20.746094 C 5.71875 -20.746094 1.226562 -16.339844 1.226562 -10.183594 C 1.226562 -4.054688 5.632812 0.351562 11.46875 0.351562 C 15.261719 0.351562 19.519531 -2.421875 20.949219 -6.390625 L 20.949219 -6.359375 C 21.242188 -7.0625 21.386719 -8.226562 21.535156 -9.980469 L 10.300781 -9.980469 L 10.300781 -6.972656 L 18.003906 -6.972656 C 16.777344 -3.9375 14.035156 -2.539062 11.46875 -2.539062 C 7.382812 -2.539062 4.230469 -5.777344 4.230469 -10.183594 C 4.230469 -14.558594 7.382812 -17.738281 11.46875 -17.738281 C 14.121094 -17.738281 17.332031 -16.601562 18.179688 -13.246094 Z M 18.179688 -13.246094 "/></g></g></g><g fill="#000000" fill-opacity="1"><g transform="translate(177.967851, 231.558597)"><g><path d="M 17.683594 -8.578125 C 17.359375 -13.539062 13.507812 -16.019531 9.597656 -16.019531 C 5.425781 -16.019531 1.402344 -13.304688 1.402344 -7.878906 C 1.402344 -2.449219 5.484375 0.292969 9.542969 0.292969 C 12.78125 0.292969 16.019531 -1.429688 17.214844 -4.871094 L 14.269531 -4.871094 C 13.335938 -3.09375 11.523438 -2.246094 9.570312 -2.246094 C 7.207031 -2.246094 4.261719 -4.113281 4.261719 -7.207031 L 17.625 -7.207031 C 17.683594 -7.46875 17.710938 -7.761719 17.710938 -8.082031 C 17.710938 -8.257812 17.710938 -8.402344 17.683594 -8.578125 Z M 14.675781 -9.570312 L 4.375 -9.570312 C 4.960938 -12.371094 7.292969 -13.507812 9.597656 -13.507812 C 11.875 -13.507812 14.121094 -12.402344 14.675781 -9.570312 Z M 14.675781 -9.570312 "/></g></g></g><g fill="#000000" fill-opacity="1"><g transform="translate(197.225225, 231.558597)"><g><path d="M 5.921875 -15.785156 L 5.921875 -19.285156 L 3.0625 -18.730469 L 3.0625 -15.785156 L 0.699219 -15.785156 L 0.699219 -13.507812 L 3.0625 -13.507812 L 3.0625 -4.640625 C 3.0625 -0.960938 5.078125 0.0859375 8.167969 0.0859375 C 8.578125 0.0859375 9.015625 0.0585938 9.484375 0.0273438 L 9.484375 -2.363281 C 9.046875 -2.335938 8.636719 -2.304688 8.285156 -2.304688 C 6.855469 -2.304688 5.921875 -2.742188 5.921875 -4.609375 L 5.921875 -13.507812 L 9.394531 -13.507812 L 9.394531 -15.785156 Z M 5.921875 -15.785156 "/></g></g></g><g fill="#000000" fill-opacity="1"><g transform="translate(207.2624, 231.558597)"><g/></g></g><g fill="#000000" fill-opacity="1"><g transform="translate(214.527686, 231.558597)"><g><path d="M 14.09375 -12.3125 L 5.457031 -12.3125 L 5.457031 -20.597656 L 2.507812 -20.597656 L 2.507812 0 L 5.457031 0 L 5.457031 -9.394531 L 14.09375 -9.394531 L 14.09375 0 L 17.070312 0 L 17.070312 -20.597656 L 14.09375 -20.597656 Z M 14.09375 -12.3125 "/></g></g></g><g fill="#000000" fill-opacity="1"><g transform="translate(234.106018, 231.558597)"><g><path d="M 2.011719 -19.839844 C 2.011719 -18.730469 2.917969 -18.179688 3.792969 -18.179688 C 4.699219 -18.179688 5.574219 -18.730469 5.574219 -19.839844 C 5.574219 -20.949219 4.699219 -21.476562 3.824219 -21.476562 C 2.917969 -21.476562 2.011719 -20.921875 2.011719 -19.839844 Z M 2.363281 -15.960938 L 5.222656 -15.960938 L 5.222656 0 L 2.363281 0 Z M 2.363281 -15.960938 "/></g></g></g><g fill="#000000" fill-opacity="1"><g transform="translate(241.954852, 231.558597)"><g><path d="M 5.019531 -13.832031 L 5.019531 -15.757812 L 2.1875 -15.757812 L 2.1875 0 L 5.019531 0 L 5.019531 -8.550781 C 5.019531 -11.4375 7.234375 -13.566406 9.890625 -13.566406 C 10.359375 -13.566406 10.855469 -13.507812 11.351562 -13.363281 L 11.351562 -15.871094 C 10.707031 -16.019531 10.09375 -16.105469 9.484375 -16.105469 C 7.730469 -16.105469 6.15625 -15.40625 5.019531 -13.832031 Z M 5.019531 -13.832031 "/></g></g></g><g fill="#000000" fill-opacity="1"><g transform="translate(254.209553, 231.558597)"><g><path d="M 17.683594 -8.578125 C 17.359375 -13.539062 13.507812 -16.019531 9.597656 -16.019531 C 5.425781 -16.019531 1.402344 -13.304688 1.402344 -7.878906 C 1.402344 -2.449219 5.484375 0.292969 9.542969 0.292969 C 12.78125 0.292969 16.019531 -1.429688 17.214844 -4.871094 L 14.269531 -4.871094 C 13.335938 -3.09375 11.523438 -2.246094 9.570312 -2.246094 C 7.207031 -2.246094 4.261719 -4.113281 4.261719 -7.207031 L 17.625 -7.207031 C 17.683594 -7.46875 17.710938 -7.761719 17.710938 -8.082031 C 17.710938 -8.257812 17.710938 -8.402344 17.683594 -8.578125 Z M 14.675781 -9.570312 L 4.375 -9.570312 C 4.960938 -12.371094 7.292969 -13.507812 9.597656 -13.507812 C 11.875 -13.507812 14.121094 -12.402344 14.675781 -9.570312 Z M 14.675781 -9.570312 "/></g></g></g><g fill="#000000" fill-opacity="1"><g transform="translate(273.466927, 231.558597)"><g><path d="M 17.710938 -20.425781 L 14.851562 -20.425781 L 14.851562 -13.742188 C 13.480469 -15.609375 11.496094 -16.046875 9.542969 -16.046875 C 4.203125 -16.046875 1.167969 -12.488281 1.167969 -7.964844 C 1.167969 -3.269531 4.054688 0.261719 9.570312 0.261719 C 11.554688 0.234375 13.714844 -0.410156 14.851562 -2.128906 L 14.851562 0 L 17.710938 0 Z M 14.851562 -7.90625 C 14.851562 -4.113281 12.195312 -2.277344 9.511719 -2.277344 C 6.039062 -2.277344 4.027344 -4.667969 4.027344 -7.90625 C 4.027344 -10.738281 6.039062 -13.539062 9.542969 -13.539062 C 12.195312 -13.539062 14.851562 -11.671875 14.851562 -7.90625 Z M 14.851562 -7.90625 "/></g></g></g></svg>