<svg xmlns="http://www.w3.org/2000/svg" xmlns:xlink="http://www.w3.org/1999/xlink" width="500" zoomAndPan="magnify" viewBox="0 0 375 374.999991" height="500" preserveAspectRatio="xMidYMid meet" version="1.0"><defs><clipPath id="414e5f8a2f"><path d="M 185 119.890625 L 286 119.890625 L 286 254 L 185 254 Z M 185 119.890625 " clip-rule="nonzero"/></clipPath></defs><path fill="#ffcc33" d="M 163.113281 189.285156 C 163.539062 185.855469 164.03125 182.433594 164.347656 178.996094 C 164.414062 178.261719 163.859375 177.457031 163.539062 176.710938 C 162.886719 175.1875 163.484375 174.160156 165.109375 174.128906 C 166.300781 174.101562 167.496094 174.101562 168.6875 174.140625 C 169.820312 174.179688 170.734375 175.273438 170.175781 176.167969 C 168.285156 179.179688 169.746094 182.214844 169.902344 185.230469 C 169.96875 186.59375 170.261719 187.941406 170.695312 189.394531 C 170.871094 188.980469 171.085938 188.578125 171.21875 188.148438 C 172.734375 183.3125 174.28125 178.488281 175.703125 173.628906 C 176.050781 172.445312 176.546875 172.242188 177.632812 172.527344 C 183.4375 174.027344 189.253906 175.515625 195.078125 176.949219 C 197.488281 177.542969 199.105469 179.007812 199.757812 181.308594 C 200.472656 183.796875 200.984375 186.359375 201.390625 188.917969 C 201.675781 190.714844 201.582031 192.570312 201.757812 194.390625 C 201.859375 195.453125 201.410156 195.929688 200.46875 196.304688 C 195.457031 198.300781 190.222656 199.429688 184.898438 200.144531 C 173.480469 201.667969 162.035156 201.695312 150.597656 200.394531 C 144.574219 199.714844 138.652344 198.53125 132.988281 196.273438 C 132.082031 195.914062 131.746094 195.441406 131.789062 194.449219 C 131.976562 190.238281 132.171875 186.054688 133.480469 181.996094 C 134.363281 179.253906 136.003906 177.5 138.929688 176.816406 C 144.59375 175.492188 150.214844 174.003906 155.84375 172.539062 C 156.988281 172.242188 157.472656 172.449219 157.839844 173.703125 C 159.246094 178.570312 160.820312 183.382812 162.339844 188.214844 C 162.460938 188.597656 162.632812 188.96875 162.78125 189.339844 C 162.890625 189.324219 163 189.304688 163.113281 189.285156 " fill-opacity="1" fill-rule="nonzero"/><path fill="#ca61c3" d="M 112.230469 171.710938 C 113.886719 177.003906 115.503906 182.152344 117.117188 187.300781 C 117.257812 187.28125 117.402344 187.257812 117.542969 187.238281 C 117.867188 184.816406 118.136719 182.390625 118.539062 179.984375 C 118.800781 178.40625 118.746094 176.980469 117.929688 175.53125 C 117.285156 174.382812 118.011719 173.394531 119.355469 173.359375 C 120.441406 173.332031 121.535156 173.332031 122.621094 173.367188 C 123.726562 173.402344 124.550781 174.390625 123.984375 175.296875 C 122.65625 177.421875 123.296875 179.566406 123.546875 181.71875 C 123.757812 183.5625 124.042969 185.398438 124.289062 187.230469 C 124.429688 187.253906 124.570312 187.28125 124.710938 187.304688 C 126.324219 182.160156 127.9375 177.023438 129.625 171.660156 C 131.507812 172.113281 133.472656 172.585938 135.605469 173.097656 C 135.289062 173.371094 135.101562 173.554688 134.886719 173.703125 C 131.78125 175.875 130.683594 179.175781 130.132812 182.632812 C 129.617188 185.832031 129.464844 189.097656 129.242188 192.339844 C 129.117188 194.15625 129.910156 195.5625 131.519531 196.496094 C 131.863281 196.699219 132.117188 197.054688 132.414062 197.339844 C 132.371094 197.449219 132.324219 197.558594 132.277344 197.667969 C 130.546875 197.796875 128.816406 197.980469 127.078125 198.039062 C 116.453125 198.398438 105.878906 198.066406 95.527344 195.355469 C 93.628906 194.855469 91.78125 194.171875 89.945312 193.476562 C 89.539062 193.324219 88.988281 192.75 89 192.386719 C 89.136719 188.34375 89.253906 184.296875 90.566406 180.394531 C 91.378906 177.984375 92.84375 176.445312 95.398438 175.835938 C 100.605469 174.59375 105.785156 173.222656 110.976562 171.914062 C 111.375 171.816406 111.792969 171.78125 112.230469 171.710938 " fill-opacity="1" fill-rule="nonzero"/><path fill="#ca61c3" d="M 197.941406 173.101562 C 199.75 172.65625 201.417969 172.265625 203.070312 171.824219 C 203.859375 171.613281 204.117188 171.875 204.351562 172.652344 C 205.695312 177.167969 207.121094 181.65625 208.53125 186.152344 C 208.648438 186.53125 208.824219 186.886719 209.246094 187.21875 C 209.660156 184.066406 210.132812 180.921875 210.449219 177.757812 C 210.511719 177.132812 210 176.441406 209.714844 175.796875 C 209.042969 174.257812 209.589844 173.371094 211.253906 173.355469 C 212.257812 173.339844 213.265625 173.328125 214.269531 173.359375 C 215.511719 173.398438 216.222656 174.40625 215.621094 175.492188 C 214.777344 177.019531 214.75 178.539062 215.027344 180.191406 C 215.417969 182.519531 215.660156 184.875 215.960938 187.222656 C 216.105469 187.246094 216.25 187.273438 216.394531 187.296875 C 218.023438 182.132812 219.648438 176.972656 221.332031 171.636719 C 223.507812 172.175781 225.734375 172.722656 227.949219 173.28125 C 231.441406 174.160156 234.917969 175.066406 238.414062 175.90625 C 240.609375 176.4375 241.976562 177.796875 242.753906 179.851562 C 243.976562 183.101562 244.316406 186.5 244.453125 189.925781 C 244.589844 193.277344 244.566406 193.300781 241.324219 194.375 C 235.972656 196.148438 230.453125 197.089844 224.851562 197.617188 C 217.792969 198.28125 210.71875 198.324219 203.644531 197.875 C 203.265625 197.851562 202.875 197.875 202.515625 197.777344 C 202.109375 197.671875 201.730469 197.457031 201.34375 197.285156 C 201.625 196.980469 201.859375 196.605469 202.203125 196.386719 C 203.445312 195.574219 204.257812 194.464844 204.261719 192.992188 C 204.285156 188.265625 204.03125 183.558594 202.457031 179.03125 C 201.558594 176.441406 200.894531 175.574219 197.941406 173.101562 " fill-opacity="1" fill-rule="nonzero"/><path fill="#ca61c3" d="M 225.386719 145.589844 C 225.359375 150.542969 224.351562 155.316406 222.164062 159.738281 C 221.113281 161.863281 219.617188 163.867188 217.953125 165.570312 C 214.691406 168.910156 209.464844 168.757812 206.082031 165.523438 C 203.285156 162.847656 201.609375 159.539062 200.492188 155.890625 C 199.171875 151.589844 198.40625 147.207031 198.929688 142.703125 C 199.539062 137.457031 202.640625 134.300781 207.648438 132.90625 C 211.320312 131.882812 214.949219 132.089844 218.457031 133.566406 C 222.890625 135.429688 225.03125 138.90625 225.382812 143.589844 C 225.429688 144.25 225.386719 144.917969 225.386719 145.589844 " fill-opacity="1" fill-rule="nonzero"/><path fill="#ffcc33" d="M 181.359375 142.28125 C 181.308594 148.867188 180.121094 154.085938 177.933594 159.078125 C 176.785156 161.714844 175.089844 163.976562 172.960938 165.894531 C 169.472656 169.042969 164.035156 169.011719 160.53125 165.863281 C 157.332031 162.996094 155.4375 159.351562 154.144531 155.324219 C 152.730469 150.933594 152.074219 146.445312 152.195312 141.839844 C 152.339844 136.441406 155.304688 132.199219 160.40625 130.3125 C 164.644531 128.738281 168.941406 128.742188 173.175781 130.332031 C 178.707031 132.398438 181.421875 136.804688 181.359375 142.28125 " fill-opacity="1" fill-rule="nonzero"/><path fill="#ca61c3" d="M 107.023438 145.949219 C 107.136719 144.46875 107.121094 143.207031 107.335938 141.984375 C 108.144531 137.382812 110.945312 134.488281 115.335938 133.082031 C 118.742188 131.988281 122.175781 132.007812 125.582031 133.113281 C 130.761719 134.800781 133.6875 138.816406 133.742188 144.320312 C 133.785156 149.296875 132.878906 154.09375 131.007812 158.714844 C 129.988281 161.234375 128.507812 163.433594 126.601562 165.347656 C 123.050781 168.90625 117.699219 168.847656 114.140625 165.285156 C 110.363281 161.507812 108.761719 156.71875 107.742188 151.683594 C 107.347656 149.730469 107.238281 147.71875 107.023438 145.949219 " fill-opacity="1" fill-rule="nonzero"/><g clip-path="url(#414e5f8a2f)"><path fill="#ffcc33" d="M 283.507812 240.941406 L 279.136719 235.667969 C 277.734375 233.609375 275.902344 231.839844 274.355469 229.890625 C 267.0625 220.675781 259.648438 211.554688 252.253906 202.414062 C 251.738281 201.78125 251.855469 201.429688 252.378906 200.914062 C 258.136719 195.246094 262.257812 188.578125 264.441406 180.816406 C 268.6875 165.75 266.320312 151.742188 257.019531 139.109375 C 249.164062 128.433594 238.417969 122.335938 225.296875 120.386719 C 223.886719 120.175781 222.476562 120.03125 221.070312 119.855469 L 216.785156 119.855469 C 215.621094 120.003906 214.457031 120.136719 213.296875 120.300781 C 201.960938 121.90625 192.6875 126.390625 185.433594 133.707031 L 192.71875 140.785156 C 202.863281 131.097656 215.011719 127.792969 229 131.507812 C 247.558594 136.441406 259.007812 154.710938 255.765625 173.355469 C 252.144531 194.203125 233.472656 207.371094 212.519531 204 C 208.160156 203.300781 204.183594 201.898438 200.574219 199.871094 L 195.472656 208.503906 C 208.78125 216.039062 225.335938 216.925781 239.90625 209.816406 C 241.664062 208.960938 241.652344 208.972656 242.753906 210.585938 C 250.625 222.109375 258.5 233.632812 266.386719 245.15625 C 266.707031 245.617188 267.054688 246.042969 267.433594 246.425781 L 267.4375 246.425781 C 267.441406 246.425781 267.441406 246.425781 267.445312 246.425781 L 271.253906 251.019531 C 274.035156 254.382812 279.027344 254.855469 282.394531 252.082031 L 282.441406 252.046875 C 285.816406 249.273438 286.289062 244.304688 283.507812 240.941406 " fill-opacity="1" fill-rule="nonzero"/></g></svg>